<?xml version="1.0" encoding="utf-8"?>
<!-- Generator: Adobe Illustrator 23.0.2, SVG Export Plug-In . SVG Version: 6.00 Build 0)  -->
<svg version="1.1" id="Capa_1" xmlns="http://www.w3.org/2000/svg" xmlns:xlink="http://www.w3.org/1999/xlink" x="0px" y="0px"
	 viewBox="0 0 512 512" style="enable-background:new 0 0 512 512;" xml:space="preserve">
<style type="text/css">
	.st0{fill:#D35528;}
	.st1{fill:#191919;}
</style>
<path class="st0" d="M508.65,211.83c-0.73-4.07-4.27-7.03-8.4-7.03h-45.48c-4.72-18.54-12.09-36.31-21.88-52.76l32.17-32.17
	c2.93-2.92,3.33-7.53,0.96-10.92c-16.97-24.33-38.11-45.47-62.44-62.44c-3.39-2.37-7.99-1.96-10.92,0.96l-32.17,32.18
	c-16.45-9.79-34.21-17.15-52.76-21.88V12.29c0-4.13-2.96-7.67-7.03-8.4c-28.92-5.1-58.5-5.15-87.44-0.15
	c7.8,4.93,16.68,8.09,23.67,14.26c17.91-1.51,35.93-1.01,53.73,1.54v44.97c0,4.01,2.79,7.47,6.7,8.33
	c21.24,4.64,41.48,13.04,59.77,24.79c3.38,2.17,7.81,1.7,10.65-1.15l31.82-31.82c18.36,13.64,34.62,29.9,48.26,48.26l-31.82,31.82
	c-2.84,2.84-3.32,7.27-1.15,10.65c11.75,18.29,20.15,38.53,24.79,59.77c0.86,3.91,4.33,6.7,8.33,6.7h44.97
	c3.3,22.63,3.3,45.63,0,68.27h-44.97c-4.01,0-7.47,2.79-8.33,6.7c-4.64,21.24-13.04,41.48-24.79,59.77
	c-2.17,3.38-1.69,7.81,1.15,10.65l31.82,31.82c-13.65,18.36-29.91,34.62-48.26,48.26l-31.82-31.82c-2.84-2.83-7.27-3.31-10.65-1.15
	c-18.29,11.75-38.53,20.15-59.77,24.79c-3.91,0.86-6.7,4.33-6.7,8.33v44.97c-20.07,2.87-40.41,3.15-60.54,0.86
	c-3.95,2.11-7.71,4.39-11.53,6.77c-1.82,1.13-3.59,2.38-5.54,3.29c-1.73,0.8-3.61,1.26-5.21,2.3c1.21,1.25,2.79,2.12,4.52,2.44
	c29.22,5.18,59.12,5.18,88.34,0c4.07-0.73,7.03-4.27,7.03-8.4v-45.48c18.54-4.72,36.31-12.09,52.76-21.88l32.17,32.17
	c2.92,2.93,7.53,3.34,10.92,0.96c24.33-16.97,45.47-38.11,62.44-62.44c2.37-3.39,1.96-7.99-0.96-10.92l-32.17-32.17
	c9.79-16.45,17.15-34.21,21.88-52.76h45.48c4.13,0,7.67-2.96,8.4-7.03C513.83,270.95,513.83,241.05,508.65,211.83z"/>
<path class="st0" d="M316.27,256c-0.05-29.43-21.51-54.4-50.53-58.94c-0.53,2.78-0.03,5.52,0.03,8.35c0.07,3.04-0.17,6.01,0.3,9.02
	c19.34,4.43,33.12,21.65,33.12,41.58c0,19.93-13.8,37.15-33.14,41.58c-0.27,3.62,0.06,7.22,0.35,10.84
	c0.15,1.88,0.66,4.17,0.71,6.29C295.43,309.6,316.22,284.97,316.27,256z"/>
<path class="st1" d="M265.62,367.98c0.1-3.37,0.3-6.71-0.21-10.04c-0.12,0.01-0.23,0.02-0.35,0.03v-42.92
	c0.33-0.05,0.66-0.11,0.99-0.17c-0.07-0.92-0.25-1.84-0.35-2.72c-0.16-1.55-0.25-3.11-0.38-4.66c-0.28-3.36-0.53-6.71-0.27-10.06
	v-83.01c-0.44-3-0.22-5.98-0.29-9.02c-0.07-3.19-0.66-6.26,0.17-9.4c0.02-0.09,0.07-0.16,0.12-0.21v-40.84
	c-0.23-0.08-0.41-0.29-0.34-0.59c0.81-3.26,0.33-6.78-0.14-10.07c-0.38-2.68-0.09-4.98,0.05-7.65c0.01-0.28,0.21-0.43,0.42-0.47
	V81.07c0-24.43-11.05-47.56-30.05-62.92c0.17-0.02,0.34-0.02,0.51-0.04c-7.07-5.94-15.96-9.04-23.64-14.08
	c-0.46,0.14-0.91,0.31-1.34,0.53c-24.14-8.47-50.86-5.01-72.05,9.32c-21.19,14.33-34.35,37.84-35.48,63.39
	c-2.02,0.22-4,0.57-5.97,0.94c-0.36,0.07-0.73,0.1-1.09,0.17c-2.41,0.5-4.78,1.11-7.1,1.83c-0.73,0.23-1.44,0.52-2.16,0.77
	c-1.58,0.54-3.15,1.08-4.68,1.71c-0.87,0.36-1.69,0.79-2.54,1.18c-1.34,0.62-2.68,1.23-3.97,1.92c-0.89,0.47-1.74,1-2.6,1.51
	c-1.2,0.7-2.4,1.4-3.56,2.17c-0.86,0.57-1.68,1.18-2.52,1.78c-1.11,0.79-2.21,1.59-3.27,2.44c-0.81,0.65-1.59,1.33-2.38,2.02
	c-1.01,0.88-2.01,1.77-2.98,2.71c-0.76,0.73-1.49,1.48-2.21,2.24c-0.92,0.97-1.82,1.95-2.69,2.96c-0.69,0.8-1.36,1.61-2.01,2.43
	c-0.83,1.05-1.63,2.12-2.4,3.21c-0.61,0.86-1.21,1.72-1.78,2.61c-0.73,1.13-1.42,2.28-2.1,3.45c-0.53,0.91-1.05,1.82-1.54,2.75
	c-0.63,1.21-1.21,2.45-1.78,3.69c-0.43,0.95-0.88,1.89-1.28,2.86c-0.53,1.3-0.99,2.63-1.45,3.96c-0.33,0.97-0.69,1.92-0.99,2.9
	c-0.43,1.41-0.76,2.86-1.11,4.3c-0.23,0.95-0.49,1.88-0.68,2.84c-0.32,1.63-0.54,3.28-0.76,4.94c-0.11,0.82-0.27,1.61-0.35,2.44
	c-0.25,2.5-0.39,5.03-0.39,7.59c-0.04,10.29,2.02,20.49,6.07,29.95c-0.53,0.33-1,0.74-1.53,1.09c-1.39,0.91-2.72,1.9-4.05,2.88
	c-3.07,2.26-5.98,4.71-8.72,7.36c-0.32,0.31-0.66,0.58-0.97,0.89c-1.6,1.6-3.09,3.29-4.55,5.01c-0.49,0.57-0.98,1.14-1.45,1.73
	c-1.42,1.76-2.78,3.56-4.06,5.42c-0.35,0.52-0.67,1.06-1.02,1.58c-3.69,5.67-6.69,11.76-8.93,18.15c-0.53,1.51-1.05,3.02-1.5,4.57
	c-0.41,1.42-0.77,2.85-1.11,4.29c-0.47,1.98-0.84,3.99-1.16,6.02c-0.18,1.17-0.4,2.32-0.53,3.5c-0.12,1.02-0.2,2.05-0.28,3.08
	c-0.03,0.17-0.13,0.31-0.15,0.49c-0.19,2.14-0.21,4.27-0.21,6.41c0.04,24.54,10.62,47.88,29.05,64.08
	c-3.78,6.17-6.7,12.83-8.7,19.78c-0.11,0.39-0.23,0.78-0.34,1.18c-0.88,3.2-1.56,6.45-2.04,9.73c-0.08,0.54-0.13,1.09-0.2,1.63
	c-0.45,3.4-0.68,6.83-0.7,10.26c-0.17,37.76,25.89,70.59,62.71,78.99c0.24,0.95,0.58,1.86,0.85,2.79c0.27,0.91,0.53,1.82,0.83,2.72
	c0.67,2.06,1.42,4.08,2.23,6.08c0.26,0.64,0.49,1.29,0.77,1.92c3.45,8.01,8,15.5,13.53,22.25c0.34,0.41,0.69,0.8,1.04,1.21
	c1.48,1.75,3.02,3.45,4.62,5.09c0.53,0.54,1.06,1.07,1.6,1.59c1.49,1.45,3.04,2.85,4.62,4.2c0.64,0.54,1.27,1.09,1.92,1.62
	c1.62,1.3,3.28,2.53,4.98,3.73c0.65,0.46,1.27,0.94,1.93,1.38c2.32,1.55,4.69,3.01,7.15,4.35c0.45,0.24,0.92,0.44,1.38,0.68
	c2.02,1.06,4.06,2.06,6.16,2.97c1.04,0.45,2.12,0.84,3.18,1.26c1.57,0.62,3.15,1.21,4.76,1.75c1.17,0.39,2.35,0.73,3.53,1.07
	c1.61,0.46,3.23,0.88,4.87,1.26c1.16,0.27,2.33,0.53,3.51,0.75c1.84,0.35,3.7,0.61,5.57,0.85c1.01,0.13,2.01,0.29,3.03,0.39
	c2.92,0.27,5.86,0.45,8.83,0.45c12.33,0.01,24.53-2.43,35.91-7.17c0.03,0.04,0.06,0.07,0.09,0.11c1.18-0.77,2.45-1.28,3.78-1.79
	c2.29-0.88,4.3-2.13,6.36-3.44c3.65-2.32,7.29-4.52,11.06-6.58c-0.28-0.03-0.57-0.06-0.85-0.1c23.59-17.67,37.48-45.41,37.51-74.89
	v-43.1c0.36-0.03,0.73-0.06,1.09-0.09C265.85,372.64,265.55,370.4,265.62,367.98z M248,133.8l-37.05,51.87l-31.34-13.75
	c0.02-0.42,0.13-0.82,0.13-1.25c0.13-12.49-8.7-23.29-20.96-25.65c-12.27-2.37-24.47,4.37-29,16.01
	c-4.53,11.64-0.09,24.86,10.54,31.4c10.64,6.55,24.43,4.56,32.79-4.73l30.99,13.6c2.14,0.94,4.46,1.42,6.8,1.42
	c5.53,0.01,10.72-2.65,13.95-7.13L248,163.17v67.24h-69.84c-4.16-11.76-16.18-18.81-28.46-16.7c-12.29,2.11-21.27,12.76-21.27,25.23
	s8.98,23.12,21.27,25.23c12.29,2.11,24.31-4.94,28.46-16.7H248v34.13h-18.64c-4.16-11.76-16.18-18.81-28.47-16.7
	c-12.29,2.11-21.27,12.76-21.27,25.23c0,12.47,8.98,23.12,21.27,25.23c12.29,2.11,24.31-4.94,28.47-16.7H248v34.13h-69.8
	c-8.13,0.02-15.12,5.75-16.73,13.72l-6.02,30.12c-11.82,3.6-19.34,15.17-17.83,27.43c1.51,12.26,11.61,21.66,23.95,22.29
	s23.34-7.71,26.08-19.75c2.74-12.05-3.57-24.32-14.97-29.09l5.53-27.64H248v68.27c-0.05,42.4-34.4,76.75-76.8,76.8
	c-2.48,0-4.93-0.14-7.35-0.37c-0.87-0.08-1.73-0.23-2.59-0.35c-1.52-0.2-3.04-0.41-4.54-0.69c-1.02-0.2-2.03-0.45-3.04-0.68
	c-1.31-0.31-2.61-0.63-3.89-1c-1.04-0.3-2.07-0.63-3.09-0.98c-1.23-0.42-2.46-0.86-3.66-1.34c-0.98-0.39-1.96-0.78-2.92-1.21
	c-1.25-0.56-2.47-1.16-3.68-1.78c-0.85-0.43-1.71-0.86-2.55-1.32c-1.42-0.79-2.79-1.65-4.15-2.53c-0.57-0.37-1.17-0.71-1.73-1.09
	c-3.95-2.69-7.64-5.74-11.02-9.11c-0.11-0.11-0.21-0.23-0.32-0.34c-1.56-1.58-3.05-3.22-4.47-4.92c-0.25-0.3-0.49-0.62-0.74-0.93
	c-1.24-1.54-2.43-3.12-3.55-4.75c-0.29-0.42-0.56-0.85-0.85-1.28c-1.02-1.56-1.99-3.15-2.91-4.78c-0.29-0.51-0.57-1.03-0.84-1.55
	c-0.84-1.58-1.61-3.21-2.34-4.85c-0.26-0.59-0.53-1.18-0.78-1.78c-0.67-1.63-1.26-3.29-1.82-4.97c-0.21-0.64-0.45-1.27-0.65-1.92
	c-0.53-1.76-0.97-3.55-1.38-5.35c-0.13-0.59-0.3-1.16-0.42-1.76c-4.33-21.45,0.71-43.73,13.84-61.23c2.82-3.77,2.05-9.1-1.71-11.93
	c-3.76-2.83-9.1-2.07-11.93,1.68c-12.24,16.22-18.84,36.01-18.78,56.33c0,1.69,0.16,3.34,0.25,5c-25.78-8.89-43.04-33.2-42.92-60.47
	c0-3.52,0.28-7.02,0.85-10.49c0.06-0.37,0.2-0.71,0.26-1.07c1.79-9.99,5.98-19.39,12.2-27.4c0.06-0.08,0.07-0.17,0.12-0.25
	c8.06-10.43,19.14-18.1,31.74-21.97c4.51-1.39,7.03-6.16,5.65-10.67c-1.39-4.51-6.16-7.04-10.67-5.65
	c-13.22,4.05-25.18,11.42-34.75,21.4C25.8,293.63,17.64,275.27,17.6,256c0.02-2.86,0.22-5.72,0.6-8.56c0.11-0.91,0.26-1.8,0.41-2.69
	c0.32-1.94,0.74-3.85,1.22-5.74c0.25-0.96,0.45-1.93,0.74-2.87c0.71-2.34,1.55-4.64,2.5-6.89c0.56-1.31,1.21-2.56,1.85-3.83
	c0.53-1.06,1.08-2.1,1.66-3.13c0.78-1.37,1.59-2.74,2.46-4.05c0.5-0.76,1.06-1.47,1.6-2.21c1.66-2.29,3.46-4.47,5.39-6.54
	c0.76-0.81,1.5-1.62,2.3-2.39c1.05-1.02,2.13-1.99,3.23-2.94c1.22-1.04,2.49-2.03,3.79-2.98c1.03-0.76,2.05-1.53,3.12-2.23
	c1.98-1.29,4.03-2.49,6.13-3.57c9.66-5.02,20.38-7.65,31.26-7.65c4.71,0,8.53-3.82,8.53-8.53s-3.82-8.53-8.53-8.53
	c-10.16,0.02-20.23,1.87-29.73,5.45c-2.94-7.14-4.43-14.79-4.41-22.52c0-27.04,18.17-50.7,44.29-57.7s53.68,4.42,67.2,27.84
	c1.53,2.64,4.35,4.26,7.4,4.26c3.05,0,5.86-1.63,7.39-4.28c1.52-2.64,1.52-5.9-0.01-8.53c-12.23-21.01-33.65-35.03-57.8-37.81
	c1.97-34.56,31.09-61.28,65.7-60.28S248.02,46.45,248,81.07V133.8z M162.67,170.67c0,4.71-3.82,8.53-8.53,8.53
	c-4.71,0-8.53-3.82-8.53-8.53s3.82-8.53,8.53-8.53C158.85,162.14,162.66,165.96,162.67,170.67z M162.67,238.93
	c0,4.71-3.82,8.53-8.53,8.53c-4.71,0-8.53-3.82-8.53-8.53c0-4.71,3.82-8.53,8.53-8.53C158.85,230.41,162.66,234.22,162.67,238.93z
	 M213.87,290.13c0,4.71-3.82,8.53-8.53,8.53c-4.71,0-8.53-3.82-8.53-8.53c0-4.71,3.82-8.53,8.53-8.53
	C210.05,281.61,213.86,285.42,213.87,290.13z M171.2,401.07c0,4.71-3.82,8.53-8.53,8.53c-4.71,0-8.53-3.82-8.53-8.53
	c0-4.71,3.82-8.53,8.53-8.53C167.38,392.54,171.2,396.36,171.2,401.07z"/>
<path class="st0" d="M265.61,137.01c-0.12,1.58-0.46,3.14-0.36,4.73c0.08,1.35,0.39,2.69,0.54,4.04c0.31,2.78,0.59,5.57,0.02,8.32
	c52.69,4.74,93.13,48.91,93.13,101.9c0,52.78-40.13,96.81-92.52,101.84c0.46,3.06,0.35,6.13,0.24,9.23
	c-0.09,2.68,0.2,5.21,0.51,7.79C328.64,369.45,376,317.95,376,256C376,193.54,327.84,141.68,265.61,137.01z"/>
</svg>
