<?xml version="1.0" encoding="utf-8"?>
<!-- Generator: Adobe Illustrator 23.0.2, SVG Export Plug-In . SVG Version: 6.00 Build 0)  -->
<svg version="1.1" id="Capa_1" xmlns="http://www.w3.org/2000/svg" xmlns:xlink="http://www.w3.org/1999/xlink" x="0px" y="0px"
	 viewBox="0 0 480 480" style="enable-background:new 0 0 480 480;" xml:space="preserve">
<style type="text/css">
	.st0{fill:#D35528;}
	.st1{fill:#191919;}
</style>
<path class="st0" d="M448.19,256c-0.06,0-0.13,0-0.19,0h-96v-28.53c-5.32,0.23-10.67-0.18-16-0.34V256h-32
	c-3.05-0.02-5.84,1.7-7.2,4.42l-32,64h0.08c-0.57,1.11-0.88,2.33-0.88,3.58v64h-4.99c0.41,5.35,1.12,10.67,1.78,16H264v64
	c0,4.42,3.58,8,8,8h144c3.16-0.01,6.01-1.88,7.29-4.76l0.06-0.13l31.94-71.86c0.47-1.02,0.71-2.13,0.72-3.26V264
	C456.05,259.64,452.56,256.05,448.19,256z M308.94,272H336v48h-51.06L308.94,272z M408,464H280v-56h72v-16h-72v-56h128V464z
	 M411.06,320H352v-48h83.06L411.06,320z M440,398.3l-16,36V329.89l16-32V398.3z"/>
<path class="st1" d="M258.01,392H216V264c0.05-4.36-3.44-7.95-7.81-8c-0.06,0-0.13,0-0.19,0h-96v-29.35
	c-5.32-0.36-10.66-0.32-16-0.3V256H64c-3.03,0-5.8,1.71-7.16,4.42l-32,64h0.08c-0.59,1.1-0.9,2.33-0.92,3.58v144c0,4.42,3.58,8,8,8
	h144c3.16-0.01,6.01-1.88,7.29-4.76l0.06-0.13L213.2,408h46.59C259.13,402.67,258.42,397.35,258.01,392z M68.94,272H96v48H44.94
	L68.94,272z M168,464H40V336h56v72h16v-72h56V464z M171.06,320H112v-48h83.06L171.06,320z M184,434.3V408h11.69L184,434.3z M200,392
	h-16v-62.11l16-32V392z"/>
<path class="st1" d="M448.19,0c-0.06,0-0.13,0-0.19,0H304c-3.05-0.02-5.84,1.7-7.2,4.42l-32,64h0.08c-0.57,1.1-0.88,2.33-0.88,3.58
	v64h-44.05c-2.41,5.19-4.95,10.33-5.77,16H264v64c0,4.42,3.58,8,8,8h64v2.13c5.32,0.16,10.68,0.59,16,0.35V224h64
	c3.16-0.01,6.01-1.88,7.29-4.76l0.06-0.13l31.94-71.86c0.47-1.02,0.71-2.13,0.72-3.26V8C456.05,3.64,452.56,0.05,448.19,0z M408,208
	h-56v-72h-16v72h-56V80h128V208z M411.06,64H284.94l24-48h126.11L411.06,64z M440,142.3l-16,36V73.89l16-32V142.3z"/>
<path class="st0" d="M32,224h64v1.35c5.34-0.02,10.68-0.06,16,0.3V224h64c3.16-0.01,6.01-1.88,7.29-4.76l0.06-0.13l29.83-67.05
	c0.8-5.71,3.3-10.86,5.71-16.06H216V8c0.05-4.36-3.44-7.95-7.81-8c-0.06,0-0.13,0-0.19,0H64c-3.03,0-5.8,1.71-7.16,4.42l-32,64h0.08
	c-0.59,1.1-0.9,2.33-0.92,3.58v144C24,220.42,27.58,224,32,224z M184,178.3V152h11.69L184,178.3z M200,136h-16V73.89l16-32V136z
	 M68.94,16h126.11l-24,48H44.94L68.94,16z M40,80h128v56H96v16h72v56H40V80z"/>
</svg>
