<?xml version="1.0" encoding="utf-8"?>
<!-- Generator: Adobe Illustrator 23.0.2, SVG Export Plug-In . SVG Version: 6.00 Build 0)  -->
<svg version="1.1" id="Layer_1" xmlns="http://www.w3.org/2000/svg" xmlns:xlink="http://www.w3.org/1999/xlink" x="0px" y="0px"
	 viewBox="0 0 496 496" style="enable-background:new 0 0 496 496;" xml:space="preserve">
<style type="text/css">
	.st0{fill:#D35528;}
	.st1{fill:#191919;}
</style>
<path class="st0" d="M48,160h32v16H48V160z"/>
<path class="st1" d="M472,0H360c-13.23,0-24,10.77-24,24v80c0,13.23,10.77,24,24,24h24v16h-16v16h40v80h-32.21
	c4.45,4.78,7.61,10.53,11.49,15.75c0.06,0.09,0.08,0.17,0.09,0.25H424v-96h40v-16h-16v-16h24c13.23,0,24-10.77,24-24V24
	C496,10.77,485.23,0,472,0z M432,144h-32v-16h32V144z M480,104c0,4.41-3.59,8-8,8H360c-4.41,0-8-3.59-8-8v-8h128V104z M480,80H352
	V24c0-4.41,3.59-8,8-8h112c4.41,0,8,3.59,8,8V80z"/>
<path class="st1" d="M440,352v-80h-48.21v16H424v64h-56v144h128V352H440z M480,480h-96v-48h96V480z M480,416h-96v-48h96V416z"/>
<path class="st0" d="M390.79,288.71V272c0-0.31,0.23-0.46,0.46-0.48c-0.84-5.34-2.48-10.43-4.75-15.21
	c-0.02-0.02-0.05-0.04-0.07-0.07c-4.01-5.38-7.21-11.35-11.92-16.18c-0.18-0.18-0.17-0.4-0.07-0.58
	c-6.28-5.98-13.94-10.56-22.49-13.12c0.04-0.81,0.05-1.59,0.05-2.38c0-35.29-28.71-64-64-64c-21.89,0-42.25,11.39-53.9,29.61
	c-8.21-3.69-17.09-5.61-26.1-5.61c-26.55,0-50.46,16.73-59.81,41.28c-5.79,1.24-11.19,3.43-16.14,6.29
	c0.01,0.12-0.03,0.24-0.13,0.35c-2.86,3.14-5.68,6.48-8.81,9.36c-2.76,2.54-6.27,4.19-8.54,7.25c-0.19,0.26-0.51,0.26-0.73,0.12
	c-3.15,4.63-5.62,9.7-7.27,15.16c0.05,0.09,0.07,0.19,0.05,0.32c-0.46,2.83-1.38,5.57-1.55,8.44c-0.17,2.71,0.1,5.43,0,8.14
	c-0.02,0.52-0.67,0.61-0.91,0.29c-0.04,0.02-0.09,0.02-0.14,0.03C104.58,311.43,129.47,336,160,336h176
	c27.74,0,50.76-20.31,55.16-46.82C390.96,289.13,390.79,288.98,390.79,288.71z M336,320H160c-22.05,0-40-17.95-40-40
	c0-20.22,15.14-37.28,35.2-39.68l5.25-0.63l1.48-5.08C167.85,214.23,186.8,200,208,200c8.83,0,17.5,2.48,25.11,7.16l7.64,4.71
	l3.81-8.14C252.43,186.88,269.48,176,288,176c26.47,0,48,21.53,48,48c0,2.21-0.2,4.56-0.63,7.4l-1.21,7.91l7.91,1.2
	C361.41,243.46,376,260.44,376,280C376,302.05,358.05,320,336,320z"/>
<path class="st1" d="M160,376c0-13.23-10.77-24-24-24H88v-72h16c0,0.01,0,0.03,0,0.04c0.03,0,0.06,0.01,0.08,0.02
	c0.05-2.8-0.22-5.62,0.05-8.41c0.25-2.59,1.06-5.09,1.5-7.65H72v88H40c-13.23,0-24,10.77-24,24v72H0v24c0,13.23,10.77,24,24,24h128
	c13.23,0,24-10.77,24-24v-24h-16V376z M32,376c0-4.41,3.59-8,8-8h96c4.41,0,8,3.59,8,8v72H32V376z M160,472c0,4.41-3.59,8-8,8H24
	c-4.41,0-8-3.59-8-8v-8h144V472z"/>
<path class="st1" d="M24,208h32v40h57.74c2.19-2.94,5.37-4.6,8.11-6.94c3.13-2.68,5.9-5.97,8.67-9.06H72v-24h32
	c13.23,0,24-10.77,24-24V24c0-13.23-10.77-24-24-24H24C10.77,0,0,10.77,0,24v160C0,197.23,10.77,208,24,208z M16,24
	c0-4.41,3.59-8,8-8h80c4.41,0,8,3.59,8,8v8H16V24z M16,48h96v80H16V48z M16,144h96v40c0,4.41-3.59,8-8,8H24c-4.41,0-8-3.59-8-8V144z
	"/>
<path class="st0" d="M400,384h16v16h-16V384z"/>
<path class="st0" d="M448,448h16v16h-16V448z"/>
<path class="st0" d="M432,384h32v16h-32V384z"/>
<path class="st0" d="M400,448h32v16h-32V448z"/>
</svg>
