<?xml version="1.0" encoding="utf-8"?>
<!-- Generator: Adobe Illustrator 23.0.2, SVG Export Plug-In . SVG Version: 6.00 Build 0)  -->
<svg version="1.1" id="Layer_1" xmlns="http://www.w3.org/2000/svg" xmlns:xlink="http://www.w3.org/1999/xlink" x="0px" y="0px"
	 viewBox="0 0 480 480" style="enable-background:new 0 0 480 480;" xml:space="preserve">
<style type="text/css">
	.st0{fill:#D35528;}
	.st1{fill:#191919;}
</style>
<path class="st0" d="M472,348h-8V84c0-13.25-10.75-24-24-24H40c-13.25,0-24,10.75-24,24v264H8c-4.42,0-8,3.58-8,8v40
	c0,13.25,10.75,24,24,24h432c13.25,0,24-10.75,24-24v-40C480,351.58,476.42,348,472,348z M32,84c0-4.42,3.58-8,8-8h400
	c4.42,0,8,3.58,8,8v264H32V84z M184,364h112v8c0,4.42-3.58,8-8,8h-96c-4.42,0-8-3.58-8-8V364z M464,396c0,4.42-3.58,8-8,8H24
	c-4.42,0-8-3.58-8-8v-32h152v8c0,13.25,10.75,24,24,24h96c13.25,0,24-10.75,24-24v-8h152V396z"/>
<path class="st1" d="M226.04,114.97c0-3.85-3.12-6.97-6.97-6.97H191.2c-3.85,0-6.97,3.12-6.97,6.97v97.57h-13.94v-76.66
	c0-3.85-3.12-6.97-6.97-6.97h-27.88c-3.85,0-6.97,3.12-6.97,6.97v76.66h-13.94v-41.81c0-3.85-3.12-6.97-6.97-6.97H79.69
	c-3.85,0-6.97,3.12-6.97,6.97v41.81h-6.97v13.94h167.26v-13.94h-6.97V114.97z M86.66,212.54v-34.85h13.94v34.85H86.66z
	 M142.41,212.54v-69.69h13.94v69.69H142.41z M198.17,212.54v-90.6h13.94v90.6H198.17z"/>
<path class="st1" d="M386.33,261.32h-41.81V219.5c0-3.85-3.12-6.97-6.97-6.97c-30.79,0-55.75,24.96-55.75,55.75
	s24.96,55.75,55.75,55.75s55.75-24.96,55.75-55.75C393.3,264.44,390.18,261.32,386.33,261.32z M337.55,310.1
	c-21.75,0.02-39.89-16.64-41.71-38.32c-1.82-21.68,13.28-41.13,34.74-44.73v41.24c0,3.85,3.12,6.97,6.97,6.97h41.24
	C375.36,295.36,357.94,310.07,337.55,310.1z"/>
<path class="st1" d="M358.45,191.63c-3.85,0-6.97,3.12-6.97,6.97v48.78c0,3.85,3.12,6.97,6.97,6.97h48.78
	c3.85,0,6.97-3.12,6.97-6.97C414.17,216.6,389.23,191.66,358.45,191.63z M365.42,240.41v-34.27c17.53,3,31.27,16.73,34.27,34.27
	H365.42z"/>
<path class="st1" d="M219.07,240.41c-7.7,0-13.94,6.24-13.94,13.94c0.02,1.56,0.3,3.11,0.84,4.58l-26.16,30.52
	c-0.84-0.16-1.69-0.25-2.55-0.26c-1.98,0.01-3.94,0.44-5.74,1.28l-29.23-20.91c0.04-0.44,0.13-0.86,0.13-1.3
	c0.04-5.32-2.94-10.19-7.69-12.57c-4.75-2.39-10.44-1.86-14.68,1.35c-4.23,3.21-6.27,8.55-5.25,13.77L84.27,297
	c-1.47-0.54-3.02-0.82-4.58-0.84c-5.95-0.05-11.29,3.64-13.34,9.22c-2.05,5.58-0.36,11.86,4.21,15.66c4.57,3.8,11.05,4.33,16.17,1.3
	c5.12-3.03,7.78-8.95,6.65-14.8l30.52-26.16c3.36,1.25,7.08,1.09,10.32-0.44l29.23,20.91c-0.04,0.44-0.13,0.86-0.13,1.3
	c0,7.7,6.24,13.94,13.94,13.94c7.7,0,13.94-6.24,13.94-13.94c-0.02-1.56-0.3-3.11-0.84-4.58l26.16-30.53
	c5.19,0.96,10.48-1.1,13.66-5.32c3.18-4.22,3.7-9.86,1.35-14.59C229.17,243.42,224.35,240.42,219.07,240.41z"/>
<path class="st1" d="M260.89,121.94h13.94v13.94h-13.94V121.94z"/>
<path class="st1" d="M288.76,121.94H393.3v13.94H288.76V121.94z"/>
<path class="st1" d="M260.89,149.81h27.88v13.94h-27.88V149.81z"/>
<path class="st1" d="M302.7,149.81h55.75v13.94H302.7V149.81z"/>
<path class="st1" d="M260.89,177.69h27.88v13.94h-27.88V177.69z"/>
</svg>
