<?xml version="1.0" encoding="utf-8"?>
<!-- Generator: Adobe Illustrator 23.0.2, SVG Export Plug-In . SVG Version: 6.00 Build 0)  -->
<svg version="1.1" id="Layer_1" xmlns="http://www.w3.org/2000/svg" xmlns:xlink="http://www.w3.org/1999/xlink" x="0px" y="0px"
	 viewBox="0 0 496 496" style="enable-background:new 0 0 496 496;" xml:space="preserve">
<style type="text/css">
	.st0{fill:#D35528;}
	.st1{fill:#191919;}
</style>
<path class="st0" d="M96,48c-26.47,0-48,21.53-48,48s21.53,48,48,48s48-21.53,48-48S122.47,48,96,48z M96,128
	c-17.65,0-32-14.35-32-32s14.35-32,32-32s32,14.35,32,32S113.65,128,96,128z"/>
<path class="st1" d="M416,0c-41.41,0-75.57,31.63-79.59,72h-27.94l-55.39,60.94C246.7,129.81,239.56,128,232,128
	c-0.24,0-0.47,0.03-0.7,0.03L222.43,88H192V74.23l-21.45-7.15c-0.44-1.12-0.9-2.23-1.39-3.34l10.12-20.23L148.5,12.72l-20.23,10.12
	c-1.11-0.5-2.23-0.96-3.34-1.39L117.77,0H74.24l-7.15,21.45c-1.12,0.44-2.23,0.9-3.35,1.39L43.51,12.73L12.73,43.51l10.12,20.23
	c-0.5,1.11-0.96,2.23-1.39,3.35L0,74.23v43.53l21.45,7.15c0.44,1.12,0.9,2.23,1.39,3.35l-10.12,20.23l30.79,30.79l20.23-10.12
	c1.11,0.5,2.23,0.96,3.34,1.4L74.23,192h43.53l7.15-21.45c1.11-0.44,2.23-0.9,3.34-1.4l20.23,10.12l30.79-30.79l-10.12-20.23
	c0.5-1.11,0.96-2.23,1.39-3.35l21.46-7.14V104h17.57l5.98,26.96C197.18,137.7,184,155.31,184,176c0,13.21,5.46,25.41,14.54,34.27
	l-0.45,0.64c2.14,1.95,3.89,4.38,5.13,7.04c1.37,0.38,2.72,1.51,3.42,2.71c0.09,0.15,0.17,0.31,0.24,0.47
	c0.12-4.42,0.3-8.82,0.18-13.25c-0.1-3.9-1.05-8.15-0.15-12.02c-4.38-5.53-6.92-12.47-6.92-19.86c0-17.65,14.35-32,32-32
	s32,14.35,32,32c0,7.88-2.91,15.27-7.88,20.98c0.01,1.15,0.28,2.35,0.35,3.45c0.14,2.22,0.04,4.49,0.02,6.71
	c-0.02,3.22-0.38,6.65,0.25,9.86c1.53-0.93,3-1.92,4.41-3.01l0.18,0.17c0.18-0.12,0.36-0.23,0.56-0.34c0.41-0.23,0.85-0.43,1.3-0.63
	c0.05-0.08,0.1-0.15,0.16-0.26c0.22-0.37,0.55-0.74,0.83-1.06c0.87-0.98,1.94-1.69,2.91-2.56c1.12-1.01,1.9-2.28,2.82-3.48
	c0.43-0.56,0.85-1.1,1.31-1.63c0.66-0.75,0.78-1.17,0.34-0.08c0.22-0.55,0.5-1.07,0.81-1.55l-0.26-0.24
	c5.03-7.66,7.87-16.78,7.87-26.34c0-13.11-5.3-25-13.85-33.67L315.54,88h20.86c4.03,40.37,38.19,72,79.59,72c44.11,0,80-35.89,80-80
	S460.11,0,416,0z M176.02,106.23H176l-18,6l-1.26,3.82c-0.95,2.89-2.17,5.82-3.63,8.7l-1.82,3.59l8.5,17l-14.47,14.47l-16.99-8.5
	l-3.59,1.81c-2.91,1.46-5.84,2.69-8.7,3.63l-3.82,1.25L106.23,176H85.76l-6-18l-3.82-1.26c-2.87-0.94-5.8-2.17-8.71-3.63l-3.58-1.81
	l-16.99,8.5l-14.47-14.47l8.5-17l-1.81-3.59c-1.45-2.89-2.67-5.81-3.63-8.7L34,112.23l-18-6V85.76l18-6l1.26-3.82
	c0.95-2.89,2.17-5.82,3.63-8.7l1.82-3.59l-8.51-16.99l14.47-14.47l17,8.5l3.59-1.81c2.89-1.45,5.81-2.67,8.7-3.63l3.82-1.25l6-17.99
	h20.47l6,18l3.82,1.26c2.89,0.95,5.82,2.17,8.7,3.63l3.59,1.82l17-8.5l14.47,14.47l-8.5,17l1.82,3.59c1.46,2.89,2.67,5.82,3.63,8.7
	l1.25,3.82l18,6V106.23z M424,16.55c17.47,2.2,32.73,11.45,42.9,24.82l-13.93,8.05c-7.19-8.67-17.39-14.73-28.97-16.7V16.55z
	 M408,16.55v16.17c-11.57,1.95-21.78,8.02-28.97,16.7l-13.93-8.05C375.27,28,390.53,18.75,408,16.55z M357.01,104.82
	C353.79,97.18,352,88.79,352,80s1.79-17.18,5.01-24.82l14.05,8.11C369.11,68.5,368,74.12,368,80s1.11,11.5,3.05,16.7L357.01,104.82z
	 M408,143.45c-17.47-2.2-32.73-11.45-42.9-24.82l13.93-8.05c7.19,8.68,17.39,14.74,28.97,16.7V143.45z M384,80
	c0-17.65,14.35-32,32-32s32,14.35,32,32s-14.35,32-32,32S384,97.65,384,80z M424,143.45v-16.17c11.57-1.95,21.78-8.02,28.97-16.7
	l13.93,8.05C456.73,132,441.47,141.25,424,143.45z M460.95,96.7C462.89,91.5,464,85.88,464,80s-1.11-11.5-3.05-16.7l14.05-8.11
	C478.21,62.82,480,71.21,480,80s-1.79,17.18-5.01,24.82L460.95,96.7z"/>
<path class="st0" d="M328,312c-3.16,0-6.16,0.65-8.93,1.76C316.31,303.56,307.06,296,296,296c-2.82,0-5.49,0.57-8,1.47V296
	c0-13.23-10.77-24-24-24c-2.82,0-5.49,0.57-8,1.47v-55.33c-1.01-3.81-0.5-7.98-0.5-11.86c0-2.49,0.08-4.97-0.2-7.45
	c-0.14-1.27-0.29-2.54,0.07-3.73C253.1,184.22,243.54,176,232,176c-12.37,0-22.46,9.43-23.74,21.46c-0.18-0.2-0.35-0.4-0.52-0.6
	c-0.64,3.75,0.28,7.86,0.34,11.58c0.09,5.54-0.19,11.04-0.26,16.57l0.19-0.28v163.91c-1.51-1.55-2.59-3.55-2.99-5.8L190.67,304
	h-21.23c-14.03,0-25.44,11.41-25.44,25.44v5.11c0,1.41,0.12,2.82,0.34,4.18l14.39,86.36c1.12,6.72,3.97,13.09,8.23,18.41
	l19.78,24.73c3.39,4.25,5.26,9.58,5.26,15V496h128v-12.78c0-5.43,1.86-10.75,5.26-15l17.97-22.47c5.66-7.06,8.77-15.93,8.77-24.98
	V336C352,322.77,341.23,312,328,312z M336,420.78c0,5.43-1.86,10.75-5.26,15l-17.97,22.47c-4.98,6.23-7.99,13.85-8.63,21.76h-96.27
	c-0.65-7.91-3.66-15.54-8.63-21.76l-19.78-24.73c-2.55-3.19-4.27-7.01-4.94-11.05l-14.39-86.37c-0.08-0.52-0.12-1.04-0.12-1.55
	v-5.11c0-5.21,4.23-9.44,9.44-9.44h7.88l11.95,65.69C191.63,398.62,202.86,408,216,408h8V200c0-4.41,3.59-8,8-8s8,3.59,8,8v192h16
	v-96c0-4.41,3.59-8,8-8s8,3.59,8,8v96h16v-72c0-4.41,3.59-8,8-8s8,3.59,8,8v72h16v-56c0-4.41,3.59-8,8-8s8,3.59,8,8V420.78z"/>
</svg>
