<?xml version="1.0" encoding="utf-8"?>
<!-- Generator: Adobe Illustrator 23.0.2, SVG Export Plug-In . SVG Version: 6.00 Build 0)  -->
<svg version="1.1" id="Capa_1" xmlns="http://www.w3.org/2000/svg" xmlns:xlink="http://www.w3.org/1999/xlink" x="0px" y="0px"
	 viewBox="0 0 372 372" style="enable-background:new 0 0 372 372;" xml:space="preserve">
<style type="text/css">
	.st0{fill:#D35528;}
	.st1{fill:#191919;}
</style>
<g>
	<g>
		<path class="st0" d="M320,19.6H52c-25.12,0-52,13.68-52,52v179.68c0,38.32,26.88,52,52,52h99.2v33.12h-16.48c-4.42,0-8,3.58-8,8
			s3.58,8,8,8h105.6c4.42,0,8-3.58,8-8s-3.58-8-8-8H220.8v-33.12H320c38.32,0,52-26.88,52-52V71.6C372,33.28,345.12,19.6,320,19.6z
			 M204.8,336.4h-37.6v-33.12h37.6L204.8,336.4L204.8,336.4z M356,251.28c0,10.8-3.52,36-36,36H52c-10.8,0-36-3.52-36-36v-11.44h340
			V251.28z M356,223.92H16v-152c0-32.48,25.2-36,36-36h268c10.8,0,36,3.52,36,36V223.92z"/>
	</g>
</g>
<g>
	<g>
		<path class="st1" d="M315.69,57.36c-3.53-2.65-8.55-1.94-11.2,1.59c0,0-0.01,0.01-0.01,0.01h0.4l-59.68,80l-28-36.4
			c-1.46-1.9-3.69-3.04-6.08-3.12c-2.38-0.07-4.67,0.93-6.24,2.72L159.28,154l-33.44-57.12c-1.43-2.4-4-3.89-6.8-3.92
			c-2.81-0.02-5.42,1.44-6.88,3.84L56.96,186c-2.84,3.38-2.4,8.43,0.98,11.27c3.38,2.84,8.43,2.4,11.27-0.98
			c0.57-0.68,1.03-1.46,1.35-2.29l48-78.24l32,55.12c2.23,3.81,7.13,5.1,10.95,2.87c0.72-0.42,1.38-0.96,1.93-1.59L210,120.08
			l28.56,37.12c1.63,1.85,3.94,2.97,6.4,3.12c2.49-0.02,4.83-1.21,6.32-3.2l66-88.56C319.93,65.03,319.22,60.01,315.69,57.36z"/>
	</g>
</g>
</svg>
