<?xml version="1.0" encoding="utf-8"?>
<!-- Generator: Adobe Illustrator 23.0.2, SVG Export Plug-In . SVG Version: 6.00 Build 0)  -->
<svg version="1.1" id="Capa_1" xmlns="http://www.w3.org/2000/svg" xmlns:xlink="http://www.w3.org/1999/xlink" x="0px" y="0px"
	 viewBox="0 0 512 512" style="enable-background:new 0 0 512 512;" xml:space="preserve">
<style type="text/css">
	.st0{fill:#D35528;}
	.st1{fill:#191919;}
</style>
<g>
	<g>
		<path class="st0" d="M415.68,24.4H31.51C14.14,24.4,0,38.54,0,55.91v320.14c0,17.38,14.14,31.51,31.51,31.51h251.61
			c4.14,0,7.5-3.36,7.5-7.5s-3.36-7.5-7.5-7.5H255.1v-48.52c0-12.76-7.61-24.18-19.39-29.09l-39.4-16.42
			c-3.18-1.33-5.24-4.41-5.24-7.85v-11.71c10.1-10.27,16.01-24.25,16.01-38.98v-32.01c0-26.2-24.91-47.52-55.52-47.52
			s-55.52,21.32-55.52,47.52v32.01c0,14.73,5.91,28.71,16.01,38.98v11.71c0,3.45-2.06,6.53-5.24,7.85l-39.4,16.42
			c-11.78,4.91-19.39,16.33-19.39,29.09v48.52H31.51c-9.1,0-16.51-7.41-16.51-16.51V119.43h417.19v124.56c0,4.14,3.36,7.5,7.5,7.5
			s7.5-3.36,7.5-7.5V55.91C447.19,38.54,433.05,24.4,415.68,24.4z M63.02,344.04c0-6.69,3.99-12.67,10.16-15.24l39.4-16.42
			c8.79-3.66,14.46-12.18,14.46-21.7v-1.63c2.75,0.18,5.5-1.17,6.98-3.72c2.07-3.58,0.85-8.17-2.73-10.25
			c-12.49-7.23-20.25-20.68-20.25-35.1v-32.01c0-17.93,18.18-32.52,40.52-32.52s40.52,14.59,40.52,32.52v32.01
			c0,14.42-7.76,27.87-20.26,35.1c-3.59,2.07-4.81,6.66-2.74,10.25c1.39,2.4,3.91,3.75,6.5,3.75c0.16,0,0.33-0.02,0.49-0.03v1.62
			c0,9.52,5.68,18.04,14.47,21.7l39.4,16.42c6.17,2.57,10.16,8.55,10.16,15.24v48.52H63.02V344.04z M432.19,104.43H15V55.91
			c0-9.1,7.41-16.51,16.51-16.51h384.17c9.1,0,16.51,7.41,16.51,16.51V104.43z"/>
	</g>
</g>
<g>
	<g>
		<path class="st1" d="M39.59,64.42h-0.08c-4.14,0-7.46,3.36-7.46,7.5s3.4,7.5,7.54,7.5s7.5-3.36,7.5-7.5S43.74,64.42,39.59,64.42z"
			/>
	</g>
</g>
<g>
	<g>
		<path class="st1" d="M87.54,64.42h-0.08c-4.14,0-7.46,3.36-7.46,7.5s3.4,7.5,7.54,7.5s7.5-3.36,7.5-7.5S91.68,64.42,87.54,64.42z"
			/>
	</g>
</g>
<g>
	<g>
		<path class="st1" d="M63.52,64.42h-0.08c-4.14,0-7.46,3.36-7.46,7.5s3.4,7.5,7.54,7.5s7.5-3.36,7.5-7.5S67.67,64.42,63.52,64.42z"
			/>
	</g>
</g>
<g>
	<g>
		<path class="st1" d="M407.67,64.42H119.55c-4.14,0-7.5,3.36-7.5,7.5s3.36,7.5,7.5,7.5h288.13c4.14,0,7.5-3.36,7.5-7.5
			C415.17,67.78,411.82,64.42,407.67,64.42z"/>
	</g>
</g>
<g>
	<g>
		<path class="st1" d="M506.96,294.5l-108.05-37.58c-1.6-0.56-3.33-0.56-4.93,0l-77.7,27.02c-3.91,1.36-5.98,5.64-4.62,9.55
			c1.36,3.91,5.64,5.98,9.55,4.62l75.23-26.17l100.19,34.85c-0.87,9.58-3.81,31.03-13.55,56.73
			c-11.88,31.32-36.5,75.06-86.64,107.69c-49.92-32.49-74.53-75.99-86.43-107.14c-13.33-34.88-14.12-62.38-14.12-62.65
			c-0.09-4.14-3.47-7.41-7.66-7.33c-4.14,0.09-7.43,3.52-7.34,7.66c0.03,1.2,0.79,29.91,14.89,67.09
			c13,34.3,40.34,82.55,96.7,117.63c1.21,0.76,2.59,1.13,3.96,1.13s2.75-0.38,3.96-1.13c56.36-35.08,83.69-83.33,96.7-117.63
			c14.1-37.19,14.86-65.89,14.89-67.09C512.07,298.49,510.03,295.57,506.96,294.5z"/>
	</g>
</g>
<g>
	<g>
		<path class="st0" d="M445.21,336.8c-2.93-2.93-7.68-2.93-10.61,0l-46.37,46.37l-27.58-27.58c-2.93-2.93-7.68-2.93-10.61,0
			c-2.93,2.93-2.93,7.68,0,10.61l32.88,32.88c1.46,1.46,3.38,2.2,5.3,2.2s3.84-0.73,5.3-2.2l51.67-51.67
			C448.14,344.48,448.14,339.73,445.21,336.8z"/>
	</g>
</g>
<g>
	<g>
		<path class="st1" d="M383.67,152.46H255.61c-8.55,0-15.5,6.96-15.5,15.5v24.01c0,8.55,6.96,15.5,15.5,15.5h128.06
			c8.55,0,15.5-6.95,15.5-15.5v-24.01C399.17,159.41,392.21,152.46,383.67,152.46z M384.17,191.97c0,0.28-0.23,0.5-0.5,0.5H255.61
			c-0.28,0-0.5-0.23-0.5-0.5v-24.01c0-0.28,0.23-0.5,0.5-0.5h128.06c0.28,0,0.5,0.23,0.5,0.5V191.97z"/>
	</g>
</g>
<g>
	<g>
		<path class="st1" d="M351.65,224.49h-96.04c-4.14,0-7.5,3.36-7.5,7.5s3.36,7.5,7.5,7.5h96.04c4.14,0,7.5-3.36,7.5-7.5
			S355.79,224.49,351.65,224.49z"/>
	</g>
</g>
<g>
	<g>
		<path class="st1" d="M311.63,256.5h-56.02c-4.14,0-7.5,3.36-7.5,7.5s3.36,7.5,7.5,7.5h56.02c4.14,0,7.5-3.36,7.5-7.5
			C319.13,259.86,315.77,256.5,311.63,256.5z"/>
	</g>
</g>
</svg>
