<?xml version="1.0" encoding="utf-8"?>
<!-- Generator: Adobe Illustrator 23.0.2, SVG Export Plug-In . SVG Version: 6.00 Build 0)  -->
<svg version="1.1" id="Layer_1" xmlns="http://www.w3.org/2000/svg" xmlns:xlink="http://www.w3.org/1999/xlink" x="0px" y="0px"
	 viewBox="0 0 512 512" style="enable-background:new 0 0 512 512;" xml:space="preserve">
<style type="text/css">
	.st0{fill:#D35528;}
	.st1{fill:#191919;}
</style>
<path class="st0" d="M97.32,511.98c4.14,0,7.5-3.36,7.5-7.5V313.84c0-11.21-9.13-20.34-20.34-20.34H20.34
	C9.13,293.5,0,302.62,0,313.84v190.64c0,4.14,3.36,7.5,7.5,7.5H97.32z M15,313.84c0-2.95,2.39-5.34,5.34-5.34h64.13
	c2.95,0,5.34,2.39,5.34,5.34v183.14H15V313.84z"/>
<path class="st0" d="M156.07,243.2c-11.21,0-20.34,9.13-20.34,20.34v240.94c0,4.14,3.36,7.5,7.5,7.5h89.81c4.14,0,7.5-3.36,7.5-7.5
	V263.54c0-11.22-9.13-20.34-20.34-20.34H156.07z M225.54,263.54v233.44h-74.82V263.54c0-2.95,2.4-5.34,5.34-5.34h64.13
	C223.15,258.2,225.54,260.6,225.54,263.54z"/>
<path class="st0" d="M376.27,504.48V213.25c0-11.22-9.13-20.34-20.34-20.34H291.8c-11.22,0-20.34,9.13-20.34,20.34v291.23
	c0,4.14,3.36,7.5,7.5,7.5h89.82C372.91,511.98,376.27,508.63,376.27,504.48z M361.27,496.98h-74.82V213.25
	c0-2.95,2.39-5.34,5.34-5.34h64.13c2.95,0,5.34,2.4,5.34,5.34L361.27,496.98L361.27,496.98z"/>
<path class="st0" d="M414.69,511.98h89.81c4.14,0,7.5-3.36,7.5-7.5V162.95c0-11.21-9.13-20.34-20.34-20.34h-64.13
	c-11.21,0-20.34,9.13-20.34,20.34v341.53C407.19,508.63,410.54,511.98,414.69,511.98z M422.19,162.95c0-2.95,2.39-5.34,5.34-5.34
	h64.13c2.95,0,5.34,2.39,5.34,5.34v334.03h-74.81V162.95z"/>
<path class="st1" d="M442.63,106.5c3.4,4.9,9.18,7.41,15.09,6.56c5.9-0.85,10.74-4.89,12.62-10.55l25.63-77.04
	c1.57-4.73,0.84-9.78-2-13.87c-2.84-4.09-7.32-6.54-12.3-6.71l-81.14-2.88c-5.98-0.22-11.44,2.91-14.3,8.14
	c-2.86,5.23-2.52,11.53,0.89,16.43l8.47,12.2c-43.84,25.3-147.19,76.37-288,91.32c-4.12,0.44-7.11,4.13-6.67,8.25
	c0.41,3.85,3.66,6.71,7.45,6.71c0.27,0,0.53-0.01,0.8-0.04c151.82-16.12,261.11-73.52,301.05-97.45c3.67-2.2,4.75-7.2,2.3-10.71
	c0,0-12.85-18.5-13.09-18.84c-0.32-0.46,0.02-1.04,0.55-1.03c0,0,80.8,2.86,81.14,2.88c0.43,0.02,0.73,0.45,0.6,0.86
	c0,0-25.59,76.91-25.63,77.04c-0.17,0.51-0.86,0.6-1.16,0.17l-11.61-16.71c-2.27-3.27-6.68-4.19-10.07-2.13
	c-17.5,10.69-46.76,27.01-86.83,44.07c-3.81,1.63-5.59,6.03-3.96,9.84s6.03,5.59,9.84,3.96c36.59-15.59,64.42-30.6,82.71-41.43
	L442.63,106.5z"/>
<path class="st1" d="M78.88,147.62c4.13-0.27,7.26-3.84,6.99-7.98c-0.27-4.13-3.85-7.26-7.98-6.99
	c-16.28,1.07-32.66,1.62-48.71,1.62c-4.14,0-7.5,3.36-7.5,7.5v53.89c0,4.14,3.36,7.5,7.5,7.5c124.18,0,227.8-29.37,292.86-54
	c3.88-1.46,5.83-5.8,4.36-9.67c-1.46-3.88-5.8-5.83-9.67-4.36c-62.57,23.69-161.46,51.84-280.05,52.99v-38.89
	C50.64,149.09,64.8,148.55,78.88,147.62z"/>
</svg>
