<?xml version="1.0" encoding="utf-8"?>
<!-- Generator: Adobe Illustrator 23.0.2, SVG Export Plug-In . SVG Version: 6.00 Build 0)  -->
<svg version="1.1" id="Capa_1" xmlns="http://www.w3.org/2000/svg" xmlns:xlink="http://www.w3.org/1999/xlink" x="0px" y="0px"
	 viewBox="0 0 512 512" style="enable-background:new 0 0 512 512;" xml:space="preserve">
<style type="text/css">
	.st0{fill:#D35528;}
</style>
<g>
	<g>
		<path class="st0" d="M504.5,248.5H383.74v-17.06h32.58c4.14,0,7.5-3.36,7.5-7.5s-3.36-7.5-7.5-7.5h-32.58v-17.07h22.62
			c8.43,0,16.35-3.28,22.31-9.24L478,140.81c3.21,1.6,6.78,2.45,10.47,2.45c6.29,0,12.2-2.45,16.64-6.89
			c4.45-4.45,6.89-10.35,6.89-16.64c0-6.29-2.45-12.19-6.89-16.64c-4.44-4.44-10.35-6.89-16.64-6.89s-12.2,2.45-16.64,6.89
			c-4.45,4.44-6.89,10.35-6.89,16.64c0,3.7,0.85,7.26,2.45,10.47l-49.33,49.33c-3.13,3.13-7.28,4.85-11.7,4.85h-22.62v-16.55
			c0-21.82-17.75-39.56-39.56-39.56h-16.55v-66.4c9.31-3.14,16.03-11.95,16.03-22.3c0-12.98-10.56-23.53-23.53-23.53
			S296.6,26.59,296.6,39.57c0,10.35,6.72,19.16,16.03,22.3v66.39h-17.06V95.68c0-4.14-3.36-7.5-7.5-7.5s-7.5,3.36-7.5,7.5v32.58
			H263.5V7.5c0-4.14-3.36-7.5-7.5-7.5s-7.5,3.36-7.5,7.5v120.76h-17.06V95.68c0-4.14-3.36-7.5-7.5-7.5s-7.5,3.36-7.5,7.5v32.58
			h-17.06v-22.62c0-8.43-3.28-16.35-9.24-22.31l-49.34-49.34c4.36-8.8,2.9-19.77-4.42-27.09c-9.18-9.18-24.1-9.17-33.28,0
			c-9.18,9.18-9.18,24.1,0,33.28c4.59,4.59,10.61,6.88,16.64,6.88c3.59,0,7.17-0.83,10.46-2.46l49.34,49.34
			c3.13,3.13,4.85,7.28,4.85,11.7v22.62h-16.55c-3.35,0-6.67,0.42-9.89,1.25c-4.01,1.03-6.43,5.12-5.39,9.13s5.12,6.43,9.13,5.39
			c1.99-0.51,4.06-0.77,6.15-0.77h176.35c13.55,0,24.56,11.02,24.56,24.56v176.35c0,2.08-0.26,4.15-0.77,6.14
			c-1.03,4.01,1.39,8.1,5.4,9.13c0.63,0.16,1.25,0.24,1.87,0.24c3.34,0,6.39-2.25,7.26-5.64c0.83-3.21,1.24-6.54,1.24-9.88v-16.55
			h66.39c3.14,9.31,11.95,16.03,22.3,16.03c12.98,0,23.53-10.56,23.53-23.53s-10.56-23.53-23.53-23.53
			c-10.35,0-19.16,6.72-22.3,16.03h-66.39v-17.07h32.58c4.14,0,7.5-3.36,7.5-7.5s-3.36-7.5-7.5-7.5h-32.58V263.5H504.5
			c4.14,0,7.5-3.36,7.5-7.5C512,251.86,508.64,248.5,504.5,248.5z M482.43,113.69c1.61-1.61,3.75-2.5,6.03-2.5s4.42,0.89,6.03,2.5
			s2.5,3.75,2.5,6.03s-0.89,4.42-2.5,6.03s-3.75,2.5-6.03,2.5s-4.42-0.89-6.03-2.5s-2.5-3.75-2.5-6.03S480.82,115.31,482.43,113.69z
			 M125.76,29.57c-3.33,3.33-8.74,3.33-12.07,0c-3.33-3.33-3.33-8.74,0-12.07c1.66-1.66,3.85-2.49,6.03-2.49
			c2.18,0,4.37,0.83,6.03,2.49C129.09,20.83,129.09,26.24,125.76,29.57z M320.13,48.1c-4.7,0-8.53-3.83-8.53-8.53
			s3.83-8.53,8.53-8.53c4.7,0,8.53,3.83,8.53,8.53S324.83,48.1,320.13,48.1z M472.44,311.6c4.7,0,8.53,3.83,8.53,8.53
			c0,4.7-3.83,8.53-8.53,8.53s-8.53-3.83-8.53-8.53C463.9,315.42,467.73,311.6,472.44,311.6z"/>
	</g>
</g>
<g>
	<g>
		<path d="M408.91,471.83c-7.32-7.32-18.29-8.78-27.1-4.42l-49.34-49.34c-3.13-3.13-4.85-7.28-4.85-11.7v-22.62h16.55
			c3.35,0,6.67-0.42,9.89-1.25c4.01-1.03,6.43-5.12,5.39-9.13c-1.03-4.01-5.12-6.43-9.13-5.39c-1.99,0.51-4.06,0.77-6.15,0.77
			H167.82c-13.54,0-24.56-11.02-24.56-24.56V167.82c0-2.09,0.26-4.15,0.77-6.15c1.03-4.01-1.38-8.1-5.39-9.13
			c-4.01-1.03-8.1,1.38-9.13,5.39c-0.83,3.21-1.25,6.54-1.25,9.89v16.55h-66.4c-3.14-9.31-11.95-16.03-22.3-16.03
			c-12.98,0-23.53,10.56-23.53,23.53s10.56,23.53,23.53,23.53c10.35,0,19.16-6.72,22.3-16.03h66.39v17.07H95.68
			c-4.14,0-7.5,3.36-7.5,7.5s3.36,7.5,7.5,7.5h32.58v17.06H7.5c-4.14,0-7.5,3.36-7.5,7.5c0,4.14,3.36,7.5,7.5,7.5h120.76v17.06
			H95.68c-4.14,0-7.5,3.36-7.5,7.5s3.36,7.5,7.5,7.5h32.58v17.07h-22.62c-8.43,0-16.35,3.28-22.31,9.24L34,371.2
			c-3.21-1.6-6.78-2.45-10.47-2.45c-6.29,0-12.19,2.45-16.64,6.89C2.45,380.08,0,385.99,0,392.27s2.45,12.2,6.89,16.64
			c4.44,4.45,10.35,6.89,16.64,6.89s12.19-2.45,16.64-6.89c4.44-4.45,6.89-10.35,6.89-16.64c0-3.7-0.85-7.26-2.45-10.47l49.33-49.33
			c3.13-3.13,7.28-4.85,11.7-4.85h22.62v16.55c0,21.82,17.75,39.56,39.56,39.56h16.55v66.39c-9.31,3.14-16.03,11.95-16.03,22.3
			c0,12.98,10.56,23.53,23.53,23.53s23.53-10.56,23.53-23.53c0-10.35-6.72-19.16-16.03-22.3v-66.39h17.06v32.58
			c0,4.14,3.36,7.5,7.5,7.5s7.5-3.36,7.5-7.5v-32.58h17.06V504.5c0,4.14,3.36,7.5,7.5,7.5s7.5-3.36,7.5-7.5V383.74h17.06v32.58
			c0,4.14,3.36,7.5,7.5,7.5s7.5-3.36,7.5-7.5v-32.58h17.06v22.62c0,8.43,3.28,16.35,9.24,22.31l49.34,49.34
			c-4.36,8.8-2.9,19.77,4.42,27.1c4.59,4.59,10.61,6.88,16.64,6.88s12.05-2.29,16.64-6.88C418.09,495.93,418.09,481,408.91,471.83z
			 M39.56,200.4c-4.7,0-8.53-3.83-8.53-8.53c0-4.71,3.83-8.53,8.53-8.53s8.53,3.83,8.53,8.53C48.1,196.58,44.27,200.4,39.56,200.4z
			 M29.57,398.31c-1.61,1.61-3.75,2.5-6.03,2.5s-4.42-0.89-6.03-2.5s-2.5-3.75-2.5-6.03s0.89-4.42,2.5-6.03s3.75-2.5,6.03-2.5
			s4.42,0.89,6.03,2.5s2.5,3.75,2.5,6.03S31.18,396.7,29.57,398.31z M200.4,472.44c0,4.7-3.83,8.53-8.53,8.53s-8.53-3.83-8.53-8.53
			s3.83-8.53,8.53-8.53S200.4,467.73,200.4,472.44z M398.31,494.5c-3.33,3.33-8.74,3.33-12.07,0c-3.33-3.33-3.33-8.74,0-12.07
			c1.66-1.66,3.85-2.49,6.03-2.49s4.37,0.83,6.03,2.49C401.63,485.76,401.63,491.17,398.31,494.5z"/>
	</g>
</g>
<g>
	<g>
		<path class="st0" d="M335.64,235.96c0-16.04-11.73-29.63-27.79-34.04c0.48-1.96,0.74-3.98,0.74-6.04
			c0-15.19-13.48-27.54-30.05-27.54c-8.97,0-17.04,3.63-22.55,9.37c-5.51-5.74-13.57-9.37-22.54-9.37
			c-16.57,0-30.04,12.35-30.04,27.54c0,2.06,0.26,4.08,0.74,6.04c-16.06,4.41-27.79,18-27.79,34.04c0,7.84,2.77,15.24,7.9,21.34
			c-5.01,6.49-7.9,14.36-7.9,22.75c0,12.75,6.81,24.66,18.04,32.05c0,0.01,0,0.01,0,0.02c0,17.4,15.5,31.55,34.56,31.55
			c10.95,0,20.72-4.68,27.05-11.96c6.33,7.28,16.1,11.96,27.05,11.96c18.34,0,33.38-13.11,34.48-29.6
			c11.14-6.46,18.11-17.78,18.11-30c0-8.99-3.83-17.57-10.43-24.05C331.81,253.53,335.64,244.95,335.64,235.96z M309.1,266.64
			c7.23,3.81,11.54,10.33,11.54,17.42c0,5.29-2.46,10.33-6.61,14.1c-3.94-7.3-10.91-13.11-19.72-15.88
			c-3.95-1.24-8.16,0.96-9.4,4.91c-1.24,3.95,0.96,8.16,4.91,9.4c7.65,2.4,12.78,8.64,12.78,15.52c0,9.13-8.77,16.55-19.55,16.55
			c-10.78,0-19.55-7.42-19.55-16.55v-48.1c0-9.13,8.77-16.55,19.55-16.55c4.14,0,7.5-3.36,7.5-7.5s-3.36-7.5-7.5-7.5
			c-7.25,0-13.99,2.06-19.55,5.56v-9.58c0-4.14-3.36-7.5-7.5-7.5s-7.5,3.36-7.5,7.5v41.64c-2.52-1.58-5.29-2.89-8.29-3.84
			c-3.95-1.24-8.16,0.96-9.4,4.91c-1.24,3.95,0.96,8.16,4.91,9.4c7.65,2.4,12.78,8.64,12.78,15.52v16.03
			c0,9.13-8.77,16.55-19.55,16.55c-10.78,0-19.55-7.42-19.55-16.55c0-3.91,1.66-7.71,4.67-10.7c2.94-2.92,2.95-7.67,0.03-10.61
			s-7.67-2.95-10.61-0.03c-1.8,1.79-3.34,3.74-4.63,5.81c-4.74-4.48-7.5-10.37-7.5-16.54c0-11.11,8.72-20.87,21.21-23.74
			c4.04-0.93,6.56-4.95,5.63-8.99c-0.93-4.04-4.95-6.56-8.99-5.63c-5.03,1.15-9.65,3.08-13.76,5.6c-2.66-3.34-4.09-7.26-4.09-11.34
			c0-11.28,10.7-20.46,23.88-20.55c0.07,0,0.13,0.01,0.2,0.01c1.71,0,3.43-0.58,4.84-1.78c2.88-2.43,3.45-6.56,1.52-9.67
			c-0.06-0.09-0.11-0.19-0.17-0.27c-0.03-0.04-0.07-0.09-0.1-0.13c-0.12-0.16-0.24-0.32-0.36-0.48c0-0.01-0.01-0.01-0.01-0.01
			c-1.25-1.48-2.74-3.93-2.74-7.19c0-6.91,6.75-12.54,15.04-12.54s15.04,5.63,15.04,12.54c0,4.14,3.36,7.5,7.5,7.5
			c4.14,0,7.5-3.36,7.5-7.5c0-6.91,6.75-12.54,15.05-12.54s15.05,5.63,15.05,12.54c0,1.85-0.48,3.42-1.13,4.72
			c-4.27,0.4-8.39,1.43-12.31,3.09c-3.82,1.61-5.61,6.01-4,9.82c1.61,3.82,6.01,5.61,9.83,4c3.24-1.37,6.73-2.07,10.37-2.1
			c0.07,0,0.14,0.01,0.21,0.01c0.07,0,0.13-0.01,0.2-0.01c13.18,0.09,23.88,9.27,23.88,20.55c0,7.09-4.31,13.6-11.54,17.42
			c-2.46,1.3-4,3.85-4,6.63C305.1,262.79,306.64,265.34,309.1,266.64z"/>
	</g>
</g>
</svg>
