<?xml version="1.0" encoding="utf-8"?>
<!-- Generator: Adobe Illustrator 23.0.2, SVG Export Plug-In . SVG Version: 6.00 Build 0)  -->
<svg version="1.1" id="Capa_1" xmlns="http://www.w3.org/2000/svg" xmlns:xlink="http://www.w3.org/1999/xlink" x="0px" y="0px"
	 viewBox="0 0 60 60" style="enable-background:new 0 0 60 60;" xml:space="preserve">
<style type="text/css">
	.st0{fill:#191919;}
	.st1{fill:#D35528;}
</style>
<g>
	<path class="st0" d="M10.5,6.5C8.02,6.5,6,8.52,6,11s2.02,4.5,4.5,4.5S15,13.48,15,11S12.98,6.5,10.5,6.5z M10.5,13.5
		C9.12,13.5,8,12.38,8,11s1.12-2.5,2.5-2.5S13,9.62,13,11S11.88,13.5,10.5,13.5z"/>
	<circle class="st0" cx="50" cy="9.5" r="1"/>
	<circle class="st0" cx="46" cy="9.5" r="1"/>
	<circle class="st0" cx="52" cy="12.5" r="1"/>
	<circle class="st0" cx="48" cy="12.5" r="1"/>
	<circle class="st0" cx="42" cy="9.5" r="1"/>
	<circle class="st0" cx="44" cy="12.5" r="1"/>
	<circle class="st0" cx="38" cy="9.5" r="1"/>
	<circle class="st0" cx="40" cy="12.5" r="1"/>
	<circle class="st0" cx="34" cy="9.5" r="1"/>
	<circle class="st0" cx="36" cy="12.5" r="1"/>
	<path class="st1" d="M60,16.89V5.11c0-2.54-2.07-4.61-4.61-4.61H4.61C2.07,0.5,0,2.57,0,5.11v11.78c0,1.47,0.7,2.76,1.78,3.61
		C0.7,21.34,0,22.64,0,24.11v11.78c0,1.47,0.7,2.76,1.78,3.61C0.7,40.34,0,41.64,0,43.11v11.78c0,2.54,2.07,4.61,4.61,4.61h50.78
		c2.54,0,4.61-2.07,4.61-4.61V43.11c0-1.47-0.7-2.76-1.78-3.61C59.3,38.66,60,37.36,60,35.89V24.11c0-1.47-0.7-2.76-1.78-3.61
		C59.3,19.66,60,18.36,60,16.89z M58,43.11v11.78c0,1.44-1.17,2.61-2.61,2.61H4.61C3.17,57.5,2,56.33,2,54.89V43.11
		c0-1.44,1.17-2.61,2.61-2.61h50.78C56.83,40.5,58,41.67,58,43.11z M58,24.11v11.78c0,1.44-1.17,2.61-2.61,2.61H4.61
		C3.17,38.5,2,37.33,2,35.89V24.11c0-1.44,1.17-2.61,2.61-2.61h50.78C56.83,21.5,58,22.67,58,24.11z M4.61,19.5
		C3.17,19.5,2,18.33,2,16.89V5.11C2,3.67,3.17,2.5,4.61,2.5h50.78C56.83,2.5,58,3.67,58,5.11v11.78c0,1.44-1.17,2.61-2.61,2.61
		L4.61,19.5L4.61,19.5z"/>
	<path class="st0" d="M10.5,34.5c2.48,0,4.5-2.02,4.5-4.5s-2.02-4.5-4.5-4.5S6,27.52,6,30S8.02,34.5,10.5,34.5z M10.5,27.5
		c1.38,0,2.5,1.12,2.5,2.5s-1.12,2.5-2.5,2.5S8,31.38,8,30S9.12,27.5,10.5,27.5z"/>
	<circle class="st0" cx="50" cy="28.5" r="1"/>
	<circle class="st0" cx="46" cy="28.5" r="1"/>
	<circle class="st0" cx="52" cy="31.5" r="1"/>
	<circle class="st0" cx="48" cy="31.5" r="1"/>
	<circle class="st0" cx="42" cy="28.5" r="1"/>
	<circle class="st0" cx="44" cy="31.5" r="1"/>
	<circle class="st0" cx="38" cy="28.5" r="1"/>
	<circle class="st0" cx="40" cy="31.5" r="1"/>
	<circle class="st0" cx="34" cy="28.5" r="1"/>
	<circle class="st0" cx="36" cy="31.5" r="1"/>
	<path class="st0" d="M10.5,53.5c2.48,0,4.5-2.02,4.5-4.5s-2.02-4.5-4.5-4.5S6,46.52,6,49S8.02,53.5,10.5,53.5z M10.5,46.5
		c1.38,0,2.5,1.12,2.5,2.5s-1.12,2.5-2.5,2.5S8,50.38,8,49S9.12,46.5,10.5,46.5z"/>
	<circle class="st0" cx="50" cy="47.5" r="1"/>
	<circle class="st0" cx="46" cy="47.5" r="1"/>
	<circle class="st0" cx="52" cy="50.5" r="1"/>
	<circle class="st0" cx="48" cy="50.5" r="1"/>
	<circle class="st0" cx="42" cy="47.5" r="1"/>
	<circle class="st0" cx="44" cy="50.5" r="1"/>
	<circle class="st0" cx="38" cy="47.5" r="1"/>
	<circle class="st0" cx="40" cy="50.5" r="1"/>
	<circle class="st0" cx="34" cy="47.5" r="1"/>
	<circle class="st0" cx="36" cy="50.5" r="1"/>
</g>
</svg>
